<mxfile host="app.diagrams.net" agent="Mozilla/5.0 (Macintosh; Intel Mac OS X 10_15_7) AppleWebKit/605.1.15 (KHTML, like Gecko) Version/18.6 Safari/605.1.15" version="28.1.2">
  <diagram name="Page-1" id="VB4wkzxtepn3c5Bnz2mS">
    <mxGraphModel dx="1593" dy="1045" grid="1" gridSize="10" guides="1" tooltips="1" connect="1" arrows="1" fold="1" page="1" pageScale="1" pageWidth="850" pageHeight="1100" math="0" shadow="0">
      <root>
        <mxCell id="0" />
        <mxCell id="1" parent="0" />
        <mxCell id="nURIWgJQDuDW57sGq8m2-5" style="edgeStyle=orthogonalEdgeStyle;rounded=0;orthogonalLoop=1;jettySize=auto;html=1;exitX=0.5;exitY=1;exitDx=0;exitDy=0;entryX=0.5;entryY=0;entryDx=0;entryDy=0;" edge="1" parent="1" source="nURIWgJQDuDW57sGq8m2-1" target="nURIWgJQDuDW57sGq8m2-3">
          <mxGeometry relative="1" as="geometry" />
        </mxCell>
        <mxCell id="nURIWgJQDuDW57sGq8m2-1" value="" style="ellipse;whiteSpace=wrap;html=1;aspect=fixed;fillColor=#000000;" vertex="1" parent="1">
          <mxGeometry x="50" y="20" width="40" height="40" as="geometry" />
        </mxCell>
        <mxCell id="nURIWgJQDuDW57sGq8m2-6" style="edgeStyle=orthogonalEdgeStyle;rounded=0;orthogonalLoop=1;jettySize=auto;html=1;exitX=0.5;exitY=1;exitDx=0;exitDy=0;" edge="1" parent="1" source="nURIWgJQDuDW57sGq8m2-3">
          <mxGeometry relative="1" as="geometry">
            <mxPoint x="70" y="220" as="targetPoint" />
          </mxGeometry>
        </mxCell>
        <mxCell id="nURIWgJQDuDW57sGq8m2-3" value="Access catalogue" style="rounded=1;whiteSpace=wrap;html=1;fillColor=#97D077;" vertex="1" parent="1">
          <mxGeometry x="10" y="100" width="120" height="60" as="geometry" />
        </mxCell>
        <mxCell id="nURIWgJQDuDW57sGq8m2-9" style="edgeStyle=orthogonalEdgeStyle;rounded=0;orthogonalLoop=1;jettySize=auto;html=1;exitX=1;exitY=0.5;exitDx=0;exitDy=0;entryX=0.5;entryY=0;entryDx=0;entryDy=0;" edge="1" parent="1" source="nURIWgJQDuDW57sGq8m2-8" target="nURIWgJQDuDW57sGq8m2-10">
          <mxGeometry relative="1" as="geometry">
            <mxPoint x="200" y="260" as="targetPoint" />
          </mxGeometry>
        </mxCell>
        <mxCell id="nURIWgJQDuDW57sGq8m2-12" value="No" style="edgeLabel;html=1;align=center;verticalAlign=middle;resizable=0;points=[];" vertex="1" connectable="0" parent="nURIWgJQDuDW57sGq8m2-9">
          <mxGeometry x="-0.2678" y="-1" relative="1" as="geometry">
            <mxPoint as="offset" />
          </mxGeometry>
        </mxCell>
        <mxCell id="nURIWgJQDuDW57sGq8m2-16" style="edgeStyle=orthogonalEdgeStyle;rounded=0;orthogonalLoop=1;jettySize=auto;html=1;exitX=0;exitY=0.5;exitDx=0;exitDy=0;entryX=0.181;entryY=0.033;entryDx=0;entryDy=0;entryPerimeter=0;" edge="1" parent="1" source="nURIWgJQDuDW57sGq8m2-8" target="nURIWgJQDuDW57sGq8m2-14">
          <mxGeometry relative="1" as="geometry">
            <Array as="points">
              <mxPoint x="-51" y="270" />
              <mxPoint x="-51" y="850" />
            </Array>
          </mxGeometry>
        </mxCell>
        <mxCell id="nURIWgJQDuDW57sGq8m2-17" value="Yes" style="edgeLabel;html=1;align=center;verticalAlign=middle;resizable=0;points=[];" vertex="1" connectable="0" parent="nURIWgJQDuDW57sGq8m2-16">
          <mxGeometry x="-0.4155" y="-1" relative="1" as="geometry">
            <mxPoint as="offset" />
          </mxGeometry>
        </mxCell>
        <mxCell id="nURIWgJQDuDW57sGq8m2-8" value="Found the product at first sight?" style="rhombus;whiteSpace=wrap;html=1;" vertex="1" parent="1">
          <mxGeometry x="22.5" y="220" width="95" height="100" as="geometry" />
        </mxCell>
        <mxCell id="nURIWgJQDuDW57sGq8m2-20" style="edgeStyle=orthogonalEdgeStyle;rounded=0;orthogonalLoop=1;jettySize=auto;html=1;exitX=0.5;exitY=1;exitDx=0;exitDy=0;entryX=0.5;entryY=0;entryDx=0;entryDy=0;" edge="1" parent="1" source="nURIWgJQDuDW57sGq8m2-10" target="nURIWgJQDuDW57sGq8m2-19">
          <mxGeometry relative="1" as="geometry" />
        </mxCell>
        <mxCell id="nURIWgJQDuDW57sGq8m2-23" value="choose categories" style="edgeLabel;html=1;align=center;verticalAlign=middle;resizable=0;points=[];" vertex="1" connectable="0" parent="nURIWgJQDuDW57sGq8m2-20">
          <mxGeometry x="-0.243" y="-2" relative="1" as="geometry">
            <mxPoint x="1" as="offset" />
          </mxGeometry>
        </mxCell>
        <mxCell id="nURIWgJQDuDW57sGq8m2-21" style="edgeStyle=orthogonalEdgeStyle;rounded=0;orthogonalLoop=1;jettySize=auto;html=1;exitX=1;exitY=0.5;exitDx=0;exitDy=0;" edge="1" parent="1" source="nURIWgJQDuDW57sGq8m2-10">
          <mxGeometry relative="1" as="geometry">
            <mxPoint x="340" y="330" as="targetPoint" />
          </mxGeometry>
        </mxCell>
        <mxCell id="nURIWgJQDuDW57sGq8m2-10" value="Search for product" style="rounded=1;whiteSpace=wrap;html=1;" vertex="1" parent="1">
          <mxGeometry x="150" y="300" width="120" height="60" as="geometry" />
        </mxCell>
        <mxCell id="nURIWgJQDuDW57sGq8m2-60" style="edgeStyle=orthogonalEdgeStyle;rounded=0;orthogonalLoop=1;jettySize=auto;html=1;exitX=0.25;exitY=1;exitDx=0;exitDy=0;" edge="1" parent="1" source="nURIWgJQDuDW57sGq8m2-14">
          <mxGeometry relative="1" as="geometry">
            <mxPoint x="7.6666666666667425" y="920" as="targetPoint" />
          </mxGeometry>
        </mxCell>
        <mxCell id="nURIWgJQDuDW57sGq8m2-14" value="" style="rounded=0;whiteSpace=wrap;html=1;fillColor=#000000;" vertex="1" parent="1">
          <mxGeometry x="-200" y="850" width="830" height="10" as="geometry" />
        </mxCell>
        <mxCell id="nURIWgJQDuDW57sGq8m2-47" style="edgeStyle=orthogonalEdgeStyle;rounded=0;orthogonalLoop=1;jettySize=auto;html=1;exitX=0.5;exitY=1;exitDx=0;exitDy=0;entryX=0.5;entryY=0;entryDx=0;entryDy=0;" edge="1" parent="1" source="nURIWgJQDuDW57sGq8m2-19" target="nURIWgJQDuDW57sGq8m2-46">
          <mxGeometry relative="1" as="geometry" />
        </mxCell>
        <mxCell id="nURIWgJQDuDW57sGq8m2-19" value="Display product lisitings and related products, their name, price, main image" style="rounded=1;whiteSpace=wrap;html=1;" vertex="1" parent="1">
          <mxGeometry x="150" y="420" width="120" height="60" as="geometry" />
        </mxCell>
        <mxCell id="nURIWgJQDuDW57sGq8m2-31" style="edgeStyle=orthogonalEdgeStyle;rounded=0;orthogonalLoop=1;jettySize=auto;html=1;exitX=0.5;exitY=1;exitDx=0;exitDy=0;entryX=0.5;entryY=0;entryDx=0;entryDy=0;" edge="1" parent="1" source="nURIWgJQDuDW57sGq8m2-24" target="nURIWgJQDuDW57sGq8m2-29">
          <mxGeometry relative="1" as="geometry" />
        </mxCell>
        <mxCell id="nURIWgJQDuDW57sGq8m2-24" value="Use search bar" style="rounded=1;whiteSpace=wrap;html=1;" vertex="1" parent="1">
          <mxGeometry x="340" y="300" width="120" height="60" as="geometry" />
        </mxCell>
        <mxCell id="nURIWgJQDuDW57sGq8m2-30" style="edgeStyle=orthogonalEdgeStyle;rounded=0;orthogonalLoop=1;jettySize=auto;html=1;exitX=0;exitY=0.5;exitDx=0;exitDy=0;entryX=1;entryY=0.5;entryDx=0;entryDy=0;" edge="1" parent="1" source="nURIWgJQDuDW57sGq8m2-29" target="nURIWgJQDuDW57sGq8m2-19">
          <mxGeometry relative="1" as="geometry" />
        </mxCell>
        <mxCell id="nURIWgJQDuDW57sGq8m2-32" value="Yes" style="edgeLabel;html=1;align=center;verticalAlign=middle;resizable=0;points=[];" vertex="1" connectable="0" parent="nURIWgJQDuDW57sGq8m2-30">
          <mxGeometry x="-0.2519" y="-2" relative="1" as="geometry">
            <mxPoint as="offset" />
          </mxGeometry>
        </mxCell>
        <mxCell id="nURIWgJQDuDW57sGq8m2-33" style="edgeStyle=orthogonalEdgeStyle;rounded=0;orthogonalLoop=1;jettySize=auto;html=1;exitX=1;exitY=0.5;exitDx=0;exitDy=0;" edge="1" parent="1" source="nURIWgJQDuDW57sGq8m2-29">
          <mxGeometry relative="1" as="geometry">
            <mxPoint x="510" y="450" as="targetPoint" />
          </mxGeometry>
        </mxCell>
        <mxCell id="nURIWgJQDuDW57sGq8m2-34" value="No" style="edgeLabel;html=1;align=center;verticalAlign=middle;resizable=0;points=[];" vertex="1" connectable="0" parent="nURIWgJQDuDW57sGq8m2-33">
          <mxGeometry x="-0.0617" y="-1" relative="1" as="geometry">
            <mxPoint as="offset" />
          </mxGeometry>
        </mxCell>
        <mxCell id="nURIWgJQDuDW57sGq8m2-29" value="valid input?" style="rhombus;whiteSpace=wrap;html=1;" vertex="1" parent="1">
          <mxGeometry x="360" y="410" width="80" height="80" as="geometry" />
        </mxCell>
        <mxCell id="nURIWgJQDuDW57sGq8m2-35" value="Display: Cannot found product" style="rounded=1;whiteSpace=wrap;html=1;" vertex="1" parent="1">
          <mxGeometry x="510" y="420" width="120" height="60" as="geometry" />
        </mxCell>
        <mxCell id="nURIWgJQDuDW57sGq8m2-53" style="edgeStyle=orthogonalEdgeStyle;rounded=0;orthogonalLoop=1;jettySize=auto;html=1;exitX=1;exitY=0.5;exitDx=0;exitDy=0;" edge="1" parent="1" source="nURIWgJQDuDW57sGq8m2-37">
          <mxGeometry relative="1" as="geometry">
            <mxPoint x="510" y="725" as="targetPoint" />
          </mxGeometry>
        </mxCell>
        <mxCell id="nURIWgJQDuDW57sGq8m2-56" value="No" style="edgeLabel;html=1;align=center;verticalAlign=middle;resizable=0;points=[];" vertex="1" connectable="0" parent="nURIWgJQDuDW57sGq8m2-53">
          <mxGeometry x="-0.2747" y="-1" relative="1" as="geometry">
            <mxPoint x="-1" as="offset" />
          </mxGeometry>
        </mxCell>
        <mxCell id="nURIWgJQDuDW57sGq8m2-37" value="Product available?" style="rhombus;whiteSpace=wrap;html=1;" vertex="1" parent="1">
          <mxGeometry x="165" y="680" width="90" height="90" as="geometry" />
        </mxCell>
        <mxCell id="nURIWgJQDuDW57sGq8m2-39" value="Display: Sold out/ Out &amp;nbsp;of stock" style="rounded=1;whiteSpace=wrap;html=1;" vertex="1" parent="1">
          <mxGeometry x="510" y="695" width="120" height="60" as="geometry" />
        </mxCell>
        <mxCell id="nURIWgJQDuDW57sGq8m2-49" style="edgeStyle=orthogonalEdgeStyle;rounded=0;orthogonalLoop=1;jettySize=auto;html=1;exitX=0;exitY=0.5;exitDx=0;exitDy=0;entryX=0;entryY=0.5;entryDx=0;entryDy=0;" edge="1" parent="1" source="nURIWgJQDuDW57sGq8m2-46" target="nURIWgJQDuDW57sGq8m2-10">
          <mxGeometry relative="1" as="geometry">
            <Array as="points">
              <mxPoint x="100" y="575" />
              <mxPoint x="100" y="330" />
            </Array>
          </mxGeometry>
        </mxCell>
        <mxCell id="nURIWgJQDuDW57sGq8m2-50" value="No" style="edgeLabel;html=1;align=center;verticalAlign=middle;resizable=0;points=[];" vertex="1" connectable="0" parent="nURIWgJQDuDW57sGq8m2-49">
          <mxGeometry x="0.0626" y="-7" relative="1" as="geometry">
            <mxPoint y="-1" as="offset" />
          </mxGeometry>
        </mxCell>
        <mxCell id="nURIWgJQDuDW57sGq8m2-51" style="edgeStyle=orthogonalEdgeStyle;rounded=0;orthogonalLoop=1;jettySize=auto;html=1;exitX=0.5;exitY=1;exitDx=0;exitDy=0;entryX=0.5;entryY=0;entryDx=0;entryDy=0;" edge="1" parent="1" source="nURIWgJQDuDW57sGq8m2-46" target="nURIWgJQDuDW57sGq8m2-37">
          <mxGeometry relative="1" as="geometry" />
        </mxCell>
        <mxCell id="nURIWgJQDuDW57sGq8m2-52" value="Yes" style="edgeLabel;html=1;align=center;verticalAlign=middle;resizable=0;points=[];" vertex="1" connectable="0" parent="nURIWgJQDuDW57sGq8m2-51">
          <mxGeometry x="-0.159" y="-1" relative="1" as="geometry">
            <mxPoint y="1" as="offset" />
          </mxGeometry>
        </mxCell>
        <mxCell id="nURIWgJQDuDW57sGq8m2-46" value="Found product?" style="rhombus;whiteSpace=wrap;html=1;" vertex="1" parent="1">
          <mxGeometry x="170" y="535" width="80" height="80" as="geometry" />
        </mxCell>
        <mxCell id="nURIWgJQDuDW57sGq8m2-58" style="edgeStyle=orthogonalEdgeStyle;rounded=0;orthogonalLoop=1;jettySize=auto;html=1;exitX=0;exitY=0.5;exitDx=0;exitDy=0;entryX=0.361;entryY=0.033;entryDx=0;entryDy=0;entryPerimeter=0;" edge="1" parent="1" source="nURIWgJQDuDW57sGq8m2-37" target="nURIWgJQDuDW57sGq8m2-14">
          <mxGeometry relative="1" as="geometry">
            <Array as="points">
              <mxPoint x="100" y="725" />
            </Array>
          </mxGeometry>
        </mxCell>
        <mxCell id="nURIWgJQDuDW57sGq8m2-59" value="Yes" style="edgeLabel;html=1;align=center;verticalAlign=middle;resizable=0;points=[];" vertex="1" connectable="0" parent="nURIWgJQDuDW57sGq8m2-58">
          <mxGeometry x="-0.6785" y="-1" relative="1" as="geometry">
            <mxPoint as="offset" />
          </mxGeometry>
        </mxCell>
        <mxCell id="nURIWgJQDuDW57sGq8m2-62" style="edgeStyle=orthogonalEdgeStyle;rounded=0;orthogonalLoop=1;jettySize=auto;html=1;exitX=0.5;exitY=1;exitDx=0;exitDy=0;" edge="1" parent="1" source="nURIWgJQDuDW57sGq8m2-61">
          <mxGeometry relative="1" as="geometry">
            <mxPoint x="9.666666666666742" y="1030" as="targetPoint" />
          </mxGeometry>
        </mxCell>
        <mxCell id="nURIWgJQDuDW57sGq8m2-61" value="Close event" style="rounded=1;whiteSpace=wrap;html=1;fillColor=#FF3333;" vertex="1" parent="1">
          <mxGeometry x="-50" y="920" width="120" height="60" as="geometry" />
        </mxCell>
        <mxCell id="nURIWgJQDuDW57sGq8m2-63" value="" style="ellipse;whiteSpace=wrap;html=1;aspect=fixed;" vertex="1" parent="1">
          <mxGeometry x="-10" y="1030" width="40" height="40" as="geometry" />
        </mxCell>
        <mxCell id="nURIWgJQDuDW57sGq8m2-64" value="" style="ellipse;whiteSpace=wrap;html=1;aspect=fixed;fillColor=#000000;" vertex="1" parent="1">
          <mxGeometry x="-5" y="1035" width="30" height="30" as="geometry" />
        </mxCell>
      </root>
    </mxGraphModel>
  </diagram>
</mxfile>
